<svg xmlns="http://www.w3.org/2000/svg" viewBox="0 0 399.99 260.77">
  <title>logo_bold</title>
  <circle fill="#26498D" cx="141.47" cy="95.63" r="6.8"/>
  <circle fill="#26498D" cx="259.99" cy="163.47" r="6.8"/>
  <path fill="#26498D" d="M0,0V260.77H400V0ZM384.83,15.16V38.1c-41.51,3.75-75.35,37.07-88.64,52.1-14.11-16-51.28-52.45-96.19-52.45C143.75,37.75,99.6,95,97.75,97.46L94.27,102l3.48,4.58c1.85,2.44,46,59.71,102.25,59.71,21.87,0,45.21-9,67.82-26.14a193.17,193.17,0,0,1,18.56,18.57c-11.26,13-46.15,49.12-86.37,49.12-48.68,0-89.77-53.18-90.18-53.72h0c-1.8-2.37-42.1-54.58-94.66-59.32V15.16Zm0,38.14v97.42C347.94,146.64,316.6,114.17,306,102,316.58,89.83,347.86,57.37,384.83,53.3ZM144.47,130.39c14.61-10.5,34.31-20.76,55.53-20.76,20.74,0,40.1,9.66,55.53,20.79-14.61,10.5-34.31,20.76-55.53,20.76C179.25,151.18,159.9,141.51,144.47,130.39ZM93.95,158.76c-10.56,12.18-41.9,44.63-78.79,48.7V110.05C52,114.13,83.38,146.58,93.95,158.76ZM15.16,245.61V222.67c41.5-3.75,75.33-37,88.63-52.08C117.89,186.54,155.07,223,200,223c56.25,0,100.39-57.27,102.25-59.71l3.48-4.58-3.48-4.58c-1.85-2.44-46-59.71-102.25-59.71-21.87,0-45.21,9-67.82,26.14A193.16,193.16,0,0,1,113.62,102C124.88,89,159.77,52.91,200,52.91c48.68,0,89.77,53.19,90.18,53.72h0c1.94,2.55,42.18,54.56,94.64,59.3v79.69Z"/>
</svg>